<svg xmlns="http://www.w3.org/2000/svg" xmlns:xlink="http://www.w3.org/1999/xlink" width="1066" height="483.72106559211994" viewBox="205 254 446.7 202.7"><title></title><style type="text/css">
#g1 circle.pindot {fill: none;stroke: none;pointer-events: fill;}#g1 rect, #g1 circle, #g1 ellipse, #g1 polyline, #g1 line, #g1 polygon, #g1 path {shape-rendering: crispEdges;}path, polyline, polygon {stroke-linejoin:round;}
path, polyline, polygon, line {stroke-linecap:round;}
rect, circle, ellipse, polyline, line, polygon, path {shape-rendering:crispEdges;}
</style>
<rect x="205" y="254" width="446.7" height="202.7" fill="#FFFFFF" stroke="none"/><g id="g1" c_spiceCmd="null" c_para="Prefix Start`1`" importFlag="0" c_portOfADImportHack="" c_transformList="" xmlns="http://www.w3.org/2000/svg"><g c_origin="250,295" c_para="package`AXIAL-0.3`nameAlias`Value(&#x3a9;)`BOM_Manufacturer Part`?`spicePre`R`spiceSymbolName`Res_AXIAL-0.3(1/8W)_US`comment`Current Set Resistor`" c_partid="part_import_gge170" id="gge170" c_shapetype="group" c_etype="pinpart" ><g c_partid="part_annotation" id="gge172" ><text c_note="note_name" x="220" y="279.34375" fill="#000080" font-family="Arial" font-size="7pt" font-weight="" font-style="" dominant-baseline="" text-anchor="start"  >Current Set Resistor</text></g><g c_partid="part_annotation" id="gge174" ><text c_note="note_pre" x="240.0078125" y="288.34375" fill="#000080" font-family="Arial" font-size="7pt" font-weight="" font-style="" dominant-baseline="" text-anchor="start"  >4.7K</text></g><polyline points="265 295 262 300" stroke="#A00000" id="gge176" stroke-width="1"   fill="none" stroke-linecap="round" /><polyline points="257 290 252 300" stroke="#A00000" id="gge177" stroke-width="1"   fill="none" stroke-linecap="round" /><polyline points="262 300 257 290" stroke="#A00000" id="gge178" stroke-width="1"   fill="none" stroke-linecap="round" /><g c_partid="part_pin" c_etype="pinpart"  c_show="show"  c_elec="0" c_spicepin="2" c_origin="270,295" id="gge179" c_rotation="0"><circle c_pindot="true" class="pindot" cx="270" cy="295" r="2" fill="#4F4F4F" stroke="none" /><path d="M 270 295 h -5" fill="none" stroke="#800" stroke-width="1"/><text x="261" y="295" font-family="Verdana" font-size="7pt" fill="#800" text-anchor="end" display="none"  >2</text><text x="269" y="291" font-family="Verdana" font-size="7pt" fill="#800" text-anchor="start" display="none"  >2</text><circle cx="268" cy="295" r="3" stroke="#800" fill="none" stroke-width="1" display="none" /><path d="M 265 292 L 262 295 L 265 298" fill="none" stroke="#800" stroke-width="1"  display="none" /></g><polyline points="243 300 238 290" stroke="#A00000" id="gge186" stroke-width="1"   fill="none" stroke-linecap="round" /><polyline points="252 300 248 290" stroke="#A00000" id="gge187" stroke-width="1"   fill="none" stroke-linecap="round" /><polyline points="248 290 243 300" stroke="#A00000" id="gge188" stroke-width="1"   fill="none" stroke-linecap="round" /><polyline points="238 290 235 295" stroke="#A00000" id="gge189" stroke-width="1"   fill="none" stroke-linecap="round" /><g c_partid="part_pin" c_etype="pinpart"  c_show="show"  c_elec="0" c_spicepin="1" c_origin="230,295" id="gge190" c_rotation="180"><circle c_pindot="true" class="pindot" cx="230" cy="295" r="2" fill="#4F4F4F" stroke="none" /><path d="M 230 295 h 5" fill="none" stroke="#800" stroke-width="1"/><text x="239" y="295" font-family="Verdana" font-size="7pt" fill="#800" text-anchor="start" display="none"  >1</text><text x="231" y="291" font-family="Verdana" font-size="7pt" fill="#800" text-anchor="end" display="none"  >1</text><circle cx="232" cy="295" r="3" stroke="#800" fill="none" stroke-width="1" display="none" /><path d="M 235 298 L 238 295 L 235 292" fill="none" stroke="#800" stroke-width="1"  display="none" /></g></g><g c_origin="460,325" c_para="package`AXIAL-0.3`nameAlias`Value(&#x3a9;)`BOM_Manufacturer Part`?`spicePre`R`spiceSymbolName`Res_AXIAL-0.3(1/8W)_US`" c_partid="part_import_gge197" id="gge197" c_shapetype="group" c_etype="pinpart" c_rotation="90"><g c_partid="part_annotation" id="gge199" ><text c_note="note_name" x="470" y="323.34375" fill="#000080" font-family="Arial" font-size="7pt" font-weight="" font-style="" dominant-baseline="" text-anchor="start"  >4.7k</text></g><g c_partid="part_annotation" id="gge201" display="none"><text c_note="note_pre" x="467.0078125" y="328.14" fill="#000080" font-family="Arial" font-size="7pt" font-weight="" font-style="" dominant-baseline="" text-anchor="start"  >R2</text></g><polyline points="460 310 465 313" stroke="#A00000" id="gge203" stroke-width="1"   fill="none" stroke-linecap="round" /><polyline points="455 318 465 323" stroke="#A00000" id="gge204" stroke-width="1"   fill="none" stroke-linecap="round" /><polyline points="465 313 455 318" stroke="#A00000" id="gge205" stroke-width="1"   fill="none" stroke-linecap="round" /><g c_partid="part_pin" c_etype="pinpart"  c_show="show"  c_elec="0" c_spicepin="2" c_origin="460,305" id="gge206" c_rotation="90"><circle c_pindot="true" class="pindot" cx="460" cy="305" r="2" fill="#4F4F4F" stroke="none" /><path d="M 460 305 v 5" fill="none" stroke="#800" stroke-width="1"/><text x="460" y="314" font-family="Verdana" font-size="7pt" fill="#800" text-anchor="end" display="none" transform="rotate(270,460,314)" >2</text><text x="456" y="306" font-family="Verdana" font-size="7pt" fill="#800" text-anchor="start" display="none" transform="rotate(270,456,306)" >2</text><circle cx="460" cy="307" r="3" stroke="#800" fill="none" stroke-width="1" display="none" /><path d="M 457 310 L 460 313 L 463 310" fill="none" stroke="#800" stroke-width="1"  display="none" /></g><polyline points="465 332 455 337" stroke="#A00000" id="gge213" stroke-width="1"   fill="none" stroke-linecap="round" /><polyline points="465 323 455 327" stroke="#A00000" id="gge214" stroke-width="1"   fill="none" stroke-linecap="round" /><polyline points="455 327 465 332" stroke="#A00000" id="gge215" stroke-width="1"   fill="none" stroke-linecap="round" /><polyline points="455 337 460 340" stroke="#A00000" id="gge216" stroke-width="1"   fill="none" stroke-linecap="round" /><g c_partid="part_pin" c_etype="pinpart"  c_show="show"  c_elec="0" c_spicepin="1" c_origin="460,345" id="gge217" c_rotation="270"><circle c_pindot="true" class="pindot" cx="460" cy="345" r="2" fill="#4F4F4F" stroke="none" /><path d="M 460 345 v -5" fill="none" stroke="#800" stroke-width="1"/><text x="460" y="336" font-family="Verdana" font-size="7pt" fill="#800" text-anchor="start" display="none" transform="rotate(270,460,336)" >1</text><text x="456" y="344" font-family="Verdana" font-size="7pt" fill="#800" text-anchor="end" display="none" transform="rotate(270,456,344)" >1</text><circle cx="460" cy="343" r="3" stroke="#800" fill="none" stroke-width="1" display="none" /><path d="M 463 340 L 460 337 L 457 340" fill="none" stroke="#800" stroke-width="1"  display="none" /></g></g><g c_origin="320,350" c_para="package`BATTERY-1`BOM_Supplier`LCSC`BOM_Manufacturer`Q&amp;J`BOM_Manufacturer Part`BS-2-1`BOM_LCSC`C70376`image`//image.lceda.cn/szlcsc/C70376.jpg`spicePre`B`" c_partid="part_import_gge224" id="gge224" c_shapetype="group" c_etype="pinpart" c_rotation="270"><g c_partid="part_annotation" id="gge226" ><text c_note="note_name" x="265" y="379.34375" fill="#000080" font-family="Arial" font-size="7pt" font-weight="" font-style="" dominant-baseline="" text-anchor="start"  >200mA LiPo</text></g><g c_partid="part_annotation" id="gge228" display="none"><text c_note="note_pre" x="330" y="353.25" fill="#000080" font-family="Arial" font-size="7pt" font-weight="" font-style="" dominant-baseline="" text-anchor="start"  >B1</text></g><polyline points="328 346 312 346" stroke="#880000" id="gge230" stroke-width="1"   fill="none" stroke-linecap="round" /><polyline points="324 349 315 349" stroke="#880000" id="gge231" stroke-width="1"   fill="none" stroke-linecap="round" /><polyline points="328 352 312 352" stroke="#880000" id="gge232" stroke-width="1"   fill="none" stroke-linecap="round" /><polyline points="324 355 315 355" stroke="#880000" id="gge233" stroke-width="1"   fill="none" stroke-linecap="round" /><g c_partid="part_pin" c_etype="pinpart"  c_show="show"  c_elec="1" c_spicepin="1" c_origin="320,330" id="gge234" c_rotation="90"><circle c_pindot="true" class="pindot" cx="320" cy="330" r="2" fill="#4F4F4F" stroke="none" /><path d="M 320 330 v 15" fill="none" stroke="#000000" stroke-width="1"/><text x="323" y="350" font-family="Verdana" font-size="7pt" fill="#000000" text-anchor="end" display="none" transform="rotate(270,323,350)" >1</text><text x="319" y="340" font-family="Verdana" font-size="7pt" fill="#000000" text-anchor="start"  transform="rotate(270,319,340)" >1</text><circle cx="320" cy="342" r="3" stroke="#000000" fill="none" stroke-width="1" display="none" /><path d="M 317 345 L 320 348 L 323 345" fill="none" stroke="#000000" stroke-width="1"  display="none" /></g><g c_partid="part_pin" c_etype="pinpart"  c_show="show"  c_elec="1" c_spicepin="2" c_origin="320,370" id="gge241" c_rotation="270"><circle c_pindot="true" class="pindot" cx="320" cy="370" r="2" fill="#4F4F4F" stroke="none" /><path d="M 320 370 v -14" fill="none" stroke="#000000" stroke-width="1"/><text x="323" y="351" font-family="Verdana" font-size="7pt" fill="#000000" text-anchor="start" display="none" transform="rotate(270,323,351)" >2</text><text x="319" y="361" font-family="Verdana" font-size="7pt" fill="#000000" text-anchor="end"  transform="rotate(270,319,361)" >2</text><circle cx="320" cy="359" r="3" stroke="#000000" fill="none" stroke-width="1" display="none" /><path d="M 323 356 L 320 353 L 317 356" fill="none" stroke="#000000" stroke-width="1"  display="none" /></g></g><g c_origin="365,285" c_para="package`TO-220(TO-220-3)`BOM_Supplier`LCSC`BOM_Manufacturer`STMicroelectronics`BOM_Manufacturer Part`L7905CV-DG`BOM_LCSC`C3799`image`//image.lceda.cn/szlcsc/C3799.jpg`spicePre`U`" c_partid="part_import_gge248" id="gge248" c_shapetype="group" c_etype="pinpart" ><g c_partid="part_annotation" id="gge250" ><text c_note="note_name" x="345" y="273.34375" fill="#000080" font-family="Arial" font-size="7pt" font-weight="" font-style="" dominant-baseline="" text-anchor="start"  >HT7333A</text></g><g c_partid="part_annotation" id="gge252" display="none"><text c_note="note_pre" x="359.0390625" y="263" fill="#000080" font-family="Arial" font-size="7pt" font-weight="" font-style="" dominant-baseline="" text-anchor="start"  >U1</text></g><rect id="gge254" x="335" y="275" rx="1" ry="1" width="60" height="30" stroke="#880000" stroke-width="1" fill="none"   /><g c_partid="part_annotation" id="gge255" c_origin="355,303.906275" c_shapetype="group" c_etype="pinpart"><text x="355" y="303.906275" fill="#880000" font-family="Times New Roman" font-size="10" font-weight=" " font-style=" " dominant-baseline="" text-anchor="start" type="comment"  >GND</text></g><g c_partid="part_pin" c_etype="pinpart"  c_show="show"  c_elec="4" c_spicepin="2" c_origin="315,285" id="gge257" c_rotation="180"><circle c_pindot="true" class="pindot" cx="315" cy="285" r="2" fill="#4F4F4F" stroke="none" /><path d="M 315 285 h 20" fill="none" stroke="#880000" stroke-width="1"/><text x="338" y="288" font-family="Verdana" font-size="7pt" fill="#0000FF" text-anchor="start"   >IN</text><text x="329" y="284" font-family="Verdana" font-size="7pt" fill="#0000FF" text-anchor="end"   >2</text><circle cx="332" cy="285" r="3" stroke="#880000" fill="none" stroke-width="1" display="none" /><path d="M 335 288 L 338 285 L 335 282" fill="none" stroke="#880000" stroke-width="1"  display="none" /></g><g c_partid="part_pin" c_etype="pinpart"  c_show="show"  c_elec="4" c_spicepin="3" c_origin="415,285" id="gge264" c_rotation="0"><circle c_pindot="true" class="pindot" cx="415" cy="285" r="2" fill="#4F4F4F" stroke="none" /><path d="M 415 285 h -20" fill="none" stroke="#880000" stroke-width="1"/><text x="392" y="288" font-family="Verdana" font-size="7pt" fill="#0000FF" text-anchor="end"   >OUT</text><text x="401" y="284" font-family="Verdana" font-size="7pt" fill="#0000FF" text-anchor="start"   >3</text><circle cx="398" cy="285" r="3" stroke="#880000" fill="none" stroke-width="1" display="none" /><path d="M 395 282 L 392 285 L 395 288" fill="none" stroke="#880000" stroke-width="1"  display="none" /></g><g c_partid="part_pin" c_etype="pinpart"  c_show="show"  c_elec="4" c_spicepin="1" c_origin="365,325" id="gge271" c_rotation="270"><circle c_pindot="true" class="pindot" cx="365" cy="325" r="2" fill="#4F4F4F" stroke="none" /><path d="M 365 325 v -20" fill="none" stroke="#000000" stroke-width="1"/><text x="368" y="302" font-family="Verdana" font-size="7pt" fill="#000000" text-anchor="start" display="none" transform="rotate(270,368,302)" >GND</text><text x="364" y="311" font-family="Verdana" font-size="7pt" fill="#000000" text-anchor="end"  transform="rotate(270,364,311)" >1</text><circle cx="365" cy="308" r="3" stroke="#000000" fill="none" stroke-width="1" display="none" /><path d="M 368 305 L 365 302 L 362 305" fill="none" stroke="#000000" stroke-width="1"  display="none" /></g></g><g c_origin="625,375" c_para="package`KEY-6.0*6.0-4`BOM_Supplier`LCSC`BOM_LCSC`C79156`BOM_Manufacturer`PANASONIC`BOM_Manufacturer Part`EVQ22705R`Contributor`LCSC`spicePre`S`" c_partid="part_import_gge278" id="gge278" c_shapetype="group" c_etype="pinpart" c_rotation="270"><g c_partid="part_annotation" id="gge280" ><text c_note="note_name" x="595" y="384.34375" fill="#000080" font-family="Arial" font-size="7pt" font-weight="" font-style="" dominant-baseline="" text-anchor="start"  >Reset</text></g><g c_partid="part_annotation" id="gge282" display="none"><text c_note="note_pre" x="637.01" y="378.14" fill="#000080" font-family="Arial" font-size="7pt" font-weight="" font-style="" dominant-baseline="" text-anchor="start"  >SW1</text></g><g c_partid="part_pin" c_etype="pinpart"  c_show="show"  c_elec="1" c_spicepin="1" c_origin="625,340" id="gge284" c_rotation="90"><circle c_pindot="true" class="pindot" cx="625" cy="340" r="2" fill="#4F4F4F" stroke="none" /><path d="M 625 340 v 20" fill="none" stroke="#000000" stroke-width="1"/><text x="628" y="365" font-family="Verdana" font-size="7pt" fill="#000000" text-anchor="end" display="none" transform="rotate(270,628,365)" >1</text><text x="624" y="355" font-family="Verdana" font-size="7pt" fill="#000000" text-anchor="start" display="none" transform="rotate(270,624,355)" >1</text><circle cx="625" cy="357" r="3" stroke="#000000" fill="none" stroke-width="1" display="none" /><path d="M 622 360 L 625 363 L 628 360" fill="none" stroke="#000000" stroke-width="1"  display="none" /></g><polygon points="632 360 631 360 631 390 632 390 632 379 635 379 635 371 632 371" stroke="#880000" id="gge291" stroke-width="1"   fill="none" stroke-linecap="round" /><path d="M 625 366 A 3 3 0 1 0 624.9948 366" id="gge292"   stroke="#880000" stroke-width="1" c_helper_type="arc1" fill="none" /><g c_partid="part_pin" c_etype="pinpart"  c_show="show"  c_elec="1" c_spicepin="2" c_origin="625,410" id="gge293" c_rotation="270"><circle c_pindot="true" class="pindot" cx="625" cy="410" r="2" fill="#4F4F4F" stroke="none" /><path d="M 625 410 v -20" fill="none" stroke="#000000" stroke-width="1"/><text x="628" y="385" font-family="Verdana" font-size="7pt" fill="#000000" text-anchor="start" display="none" transform="rotate(270,628,385)" >2</text><text x="624" y="395" font-family="Verdana" font-size="7pt" fill="#000000" text-anchor="end" display="none" transform="rotate(270,624,395)" >2</text><circle cx="625" cy="393" r="3" stroke="#000000" fill="none" stroke-width="1" display="none" /><path d="M 628 390 L 625 387 L 622 390" fill="none" stroke="#000000" stroke-width="1"  display="none" /></g><path d="M 625 390 A 3 3 0 1 0 624.9948 390" id="gge300"   stroke="#880000" stroke-width="1" c_helper_type="arc1" fill="none" /></g><g c_origin="480,405" c_para="package`KEY-6.0*6.0-4`BOM_Supplier`LCSC`BOM_LCSC`C79156`BOM_Manufacturer`PANASONIC`BOM_Manufacturer Part`EVQ22705R`Contributor`LCSC`spicePre`S`" c_partid="part_import_gge301" id="gge301" c_shapetype="group" c_etype="pinpart" c_rotation="90"><g c_partid="part_annotation" id="gge303" ><text c_note="note_name" x="445" y="428.34375" fill="#000080" font-family="Arial" font-size="7pt" font-weight="" font-style="" dominant-baseline="" text-anchor="start"  >Config.</text></g><g c_partid="part_annotation" id="gge305" display="none"><text c_note="note_pre" x="485.35" y="408.14" fill="#000080" font-family="Arial" font-size="7pt" font-weight="" font-style="" dominant-baseline="" text-anchor="start"  >SW2</text></g><g c_partid="part_pin" c_etype="pinpart"  c_show="show"  c_elec="1" c_spicepin="1" c_origin="480,440" id="gge307" c_rotation="270"><circle c_pindot="true" class="pindot" cx="480" cy="440" r="2" fill="#4F4F4F" stroke="none" /><path d="M 480 440 v -20" fill="none" stroke="#000000" stroke-width="1"/><text x="483" y="415" font-family="Verdana" font-size="7pt" fill="#000000" text-anchor="start" display="none" transform="rotate(270,483,415)" >1</text><text x="479" y="425" font-family="Verdana" font-size="7pt" fill="#000000" text-anchor="end" display="none" transform="rotate(270,479,425)" >1</text><circle cx="480" cy="423" r="3" stroke="#000000" fill="none" stroke-width="1" display="none" /><path d="M 483 420 L 480 417 L 477 420" fill="none" stroke="#000000" stroke-width="1"  display="none" /></g><polygon points="473 420 474 420 474 390 473 390 473 401 470 401 470 409 473 409" stroke="#880000" id="gge314" stroke-width="1"   fill="none" stroke-linecap="round" /><path d="M 480 414 A 3 3 0 1 0 480.0052 414" id="gge315"   stroke="#880000" stroke-width="1" c_helper_type="arc1" fill="none" /><g c_partid="part_pin" c_etype="pinpart"  c_show="show"  c_elec="1" c_spicepin="2" c_origin="480,370" id="gge316" c_rotation="90"><circle c_pindot="true" class="pindot" cx="480" cy="370" r="2" fill="#4F4F4F" stroke="none" /><path d="M 480 370 v 20" fill="none" stroke="#000000" stroke-width="1"/><text x="483" y="395" font-family="Verdana" font-size="7pt" fill="#000000" text-anchor="end" display="none" transform="rotate(270,483,395)" >2</text><text x="479" y="385" font-family="Verdana" font-size="7pt" fill="#000000" text-anchor="start" display="none" transform="rotate(270,479,385)" >2</text><circle cx="480" cy="387" r="3" stroke="#000000" fill="none" stroke-width="1" display="none" /><path d="M 477 390 L 480 393 L 483 390" fill="none" stroke="#000000" stroke-width="1"  display="none" /></g><path d="M 480 390 A 3 3 0 1 0 480.0052 390" id="gge323"   stroke="#880000" stroke-width="1" c_helper_type="arc1" fill="none" /></g><g c_origin="555,340" c_para="package`NONE`BOM_Manufacturer Part`ESP01`Contributor`emmanuel.malosse`spicePre`U`" c_partid="part_import_gge324" id="gge324" c_shapetype="group" c_etype="pinpart" ><g c_partid="part_annotation" id="gge326" ><text c_note="note_name" x="540" y="318.34375" fill="#000080" font-family="Arial" font-size="7pt" font-weight="" font-style="" dominant-baseline="" text-anchor="start"  >ESP01</text></g><g c_partid="part_annotation" id="gge328" display="none"><text c_note="note_pre" x="549.0390625" y="308" fill="#000080" font-family="Arial" font-size="7pt" font-weight="" font-style="" dominant-baseline="" text-anchor="start"  >U2</text></g><rect id="gge330" x="515" y="320" rx="3" ry="3" width="80" height="50" stroke="#000000" stroke-width="2" fill="none"   /><g c_partid="part_pin" c_etype="pinpart"  c_show="show"  c_elec="0" c_spicepin="1" c_origin="495,330" id="gge331" c_rotation="180"><circle c_pindot="true" class="pindot" cx="495" cy="330" r="2" fill="#4F4F4F" stroke="none" /><path d="M 495 330 h 20" fill="none" stroke="#880000" stroke-width="1"/><text x="517" y="333" font-family="Verdana" font-size="7pt" fill="#0000FF" text-anchor="start"   >RXD-GP3</text><text x="510" y="329" font-family="Verdana" font-size="7pt" fill="#0000FF" text-anchor="end"   >1</text><circle cx="512" cy="330" r="3" stroke="#880000" fill="none" stroke-width="1" display="none" /><path d="M 515 333 L 518 330 L 515 327" fill="none" stroke="#880000" stroke-width="1"  display="none" /></g><g c_partid="part_pin" c_etype="pinpart"  c_show="show"  c_elec="0" c_spicepin="2" c_origin="495,340" id="gge338" c_rotation="180"><circle c_pindot="true" class="pindot" cx="495" cy="340" r="2" fill="#4F4F4F" stroke="none" /><path d="M 495 340 h 20" fill="none" stroke="#880000" stroke-width="1"/><text x="517" y="342" font-family="Verdana" font-size="7pt" fill="#0000FF" text-anchor="start"   >GPIO0</text><text x="510" y="339" font-family="Verdana" font-size="7pt" fill="#0000FF" text-anchor="end"   >2</text><circle cx="512" cy="340" r="3" stroke="#880000" fill="none" stroke-width="1" display="none" /><path d="M 515 343 L 518 340 L 515 337" fill="none" stroke="#880000" stroke-width="1"  display="none" /></g><g c_partid="part_pin" c_etype="pinpart"  c_show="show"  c_elec="0" c_spicepin="3" c_origin="495,350" id="gge345" c_rotation="180"><circle c_pindot="true" class="pindot" cx="495" cy="350" r="2" fill="#4F4F4F" stroke="none" /><path d="M 495 350 h 20" fill="none" stroke="#880000" stroke-width="1"/><text x="517" y="353" font-family="Verdana" font-size="7pt" fill="#0000FF" text-anchor="start"   >GPIO2</text><text x="510" y="349" font-family="Verdana" font-size="7pt" fill="#0000FF" text-anchor="end"   >3</text><circle cx="512" cy="350" r="3" stroke="#880000" fill="none" stroke-width="1" display="none" /><path d="M 515 353 L 518 350 L 515 347" fill="none" stroke="#880000" stroke-width="1"  display="none" /></g><g c_partid="part_pin" c_etype="pinpart"  c_show="show"  c_elec="0" c_spicepin="4" c_origin="495,360" id="gge352" c_rotation="180"><circle c_pindot="true" class="pindot" cx="495" cy="360" r="2" fill="#4F4F4F" stroke="none" /><path d="M 495 360 h 20" fill="none" stroke="#880000" stroke-width="1"/><text x="517" y="363" font-family="Verdana" font-size="7pt" fill="#0000FF" text-anchor="start"   >GND</text><text x="510" y="359" font-family="Verdana" font-size="7pt" fill="#0000FF" text-anchor="end"   >4</text><circle cx="512" cy="360" r="3" stroke="#880000" fill="none" stroke-width="1" display="none" /><path d="M 515 363 L 518 360 L 515 357" fill="none" stroke="#880000" stroke-width="1"  display="none" /></g><g c_partid="part_pin" c_etype="pinpart"  c_show="show"  c_elec="0" c_spicepin="5" c_origin="615,330" id="gge359" c_rotation="0"><circle c_pindot="true" class="pindot" cx="615" cy="330" r="2" fill="#4F4F4F" stroke="none" /><path d="M 615 330 h -20" fill="none" stroke="#880000" stroke-width="1"/><text x="593" y="333" font-family="Verdana" font-size="7pt" fill="#0000FF" text-anchor="end"   >VCC</text><text x="600" y="329" font-family="Verdana" font-size="7pt" fill="#0000FF" text-anchor="start"   >5</text><circle cx="598" cy="330" r="3" stroke="#880000" fill="none" stroke-width="1" display="none" /><path d="M 595 327 L 592 330 L 595 333" fill="none" stroke="#880000" stroke-width="1"  display="none" /></g><g c_partid="part_pin" c_etype="pinpart"  c_show="show"  c_elec="0" c_spicepin="6" c_origin="615,340" id="gge366" c_rotation="0"><circle c_pindot="true" class="pindot" cx="615" cy="340" r="2" fill="#4F4F4F" stroke="none" /><path d="M 615 340 h -20" fill="none" stroke="#880000" stroke-width="1"/><text x="593" y="343" font-family="Verdana" font-size="7pt" fill="#0000FF" text-anchor="end"   >RST</text><text x="600" y="339" font-family="Verdana" font-size="7pt" fill="#0000FF" text-anchor="start"   >6</text><circle cx="598" cy="340" r="3" stroke="#880000" fill="none" stroke-width="1" display="none" /><path d="M 595 337 L 592 340 L 595 343" fill="none" stroke="#880000" stroke-width="1"  display="none" /></g><g c_partid="part_pin" c_etype="pinpart"  c_show="show"  c_elec="0" c_spicepin="7" c_origin="615,350" id="gge373" c_rotation="0"><circle c_pindot="true" class="pindot" cx="615" cy="350" r="2" fill="#4F4F4F" stroke="none" /><path d="M 615 350 h -20" fill="none" stroke="#880000" stroke-width="1"/><text x="593" y="353" font-family="Verdana" font-size="7pt" fill="#0000FF" text-anchor="end"   >CH_PD</text><text x="600" y="349" font-family="Verdana" font-size="7pt" fill="#0000FF" text-anchor="start"   >7</text><circle cx="598" cy="350" r="3" stroke="#880000" fill="none" stroke-width="1" display="none" /><path d="M 595 347 L 592 350 L 595 353" fill="none" stroke="#880000" stroke-width="1"  display="none" /></g><g c_partid="part_pin" c_etype="pinpart"  c_show="show"  c_elec="0" c_spicepin="8" c_origin="615,360" id="gge380" c_rotation="0"><circle c_pindot="true" class="pindot" cx="615" cy="360" r="2" fill="#4F4F4F" stroke="none" /><path d="M 615 360 h -20" fill="none" stroke="#880000" stroke-width="1"/><text x="593" y="363" font-family="Verdana" font-size="7pt" fill="#0000FF" text-anchor="end"   >TXD-GP1</text><text x="600" y="359" font-family="Verdana" font-size="7pt" fill="#0000FF" text-anchor="start"   >8</text><circle cx="598" cy="360" r="3" stroke="#880000" fill="none" stroke-width="1" display="none" /><path d="M 595 357 L 592 360 L 595 363" fill="none" stroke="#880000" stroke-width="1"  display="none" /></g></g><g c_origin="265,325" c_para="package`HDR-1X2/2.54`BOM_Supplier`LCSC`BOM_Manufacturer`BOOMELE`BOM_Manufacturer Part`2.54-1*2PFemale`BOM_LCSC`C49661`image`//image.lceda.cn/szlcsc/C49661.jpg`spicePre`P`" c_partid="part_import_gge387" id="gge387" c_shapetype="group" c_etype="pinpart" c_rotation="180"><g c_partid="part_annotation" id="gge389" ><text c_note="note_name" x="215" y="353.34375" fill="#000080" font-family="Arial" font-size="7pt" font-weight="" font-style="" dominant-baseline="" text-anchor="start"  >LiPo Charging Module</text></g><g c_partid="part_annotation" id="gge391" display="none"><text c_note="note_pre" x="260.296875" y="298" fill="#000080" font-family="Arial" font-size="7pt" font-weight="" font-style="" dominant-baseline="" text-anchor="start"  >P1</text></g><rect id="gge393" x="250" y="310" rx="2" ry="2" width="20" height="30" stroke="#880000" stroke-width="1" fill="none"   /><g c_partid="part_pin" c_etype="pinpart"  c_show="show"  c_elec="1" c_spicepin="1" c_origin="280,330" id="gge394" c_rotation="0"><circle c_pindot="true" class="pindot" cx="280" cy="330" r="2" fill="#4F4F4F" stroke="none" /><path d="M 280 330 h -10" fill="none" stroke="#000000" stroke-width="1"/><text x="265" y="333" font-family="Verdana" font-size="7pt" fill="#000000" text-anchor="end"   >1</text><text x="270" y="329" font-family="Verdana" font-size="7pt" fill="#000000" text-anchor="start" display="none"  >1</text><circle cx="273" cy="330" r="3" stroke="#000000" fill="none" stroke-width="1" display="none" /><path d="M 270 327 L 267 330 L 270 333" fill="none" stroke="#000000" stroke-width="1"  display="none" /></g><g c_partid="part_pin" c_etype="pinpart"  c_show="show"  c_elec="1" c_spicepin="2" c_origin="280,320" id="gge401" c_rotation="0"><circle c_pindot="true" class="pindot" cx="280" cy="320" r="2" fill="#4F4F4F" stroke="none" /><path d="M 280 320 h -10" fill="none" stroke="#000000" stroke-width="1"/><text x="265" y="323" font-family="Verdana" font-size="7pt" fill="#000000" text-anchor="end"   >2</text><text x="270" y="319" font-family="Verdana" font-size="7pt" fill="#000000" text-anchor="start" display="none"  >2</text><circle cx="273" cy="320" r="3" stroke="#000000" fill="none" stroke-width="1" display="none" /><path d="M 270 317 L 267 320 L 270 323" fill="none" stroke="#000000" stroke-width="1"  display="none" /></g></g><g c_origin="400,340" c_para="package`TO-92(TO-92-3)`BOM_Supplier`LCSC`BOM_Manufacturer`MAXIM`BOM_Manufacturer Part`DS18B20+`BOM_LCSC`C9753`image`//image.lceda.cn/szlcsc/C9753.jpg`spicePre`U`" c_partid="part_import_gge408" id="gge408" c_shapetype="group" c_etype="pinpart" c_rotation="180"><g c_partid="part_annotation" id="gge410" ><text c_note="note_name" x="385" y="328.34375" fill="#000080" font-family="Arial" font-size="7pt" font-weight="" font-style="" dominant-baseline="" text-anchor="start"  >DS18B20</text></g><g c_partid="part_annotation" id="gge412" display="none"><text c_note="note_pre" x="405.0390625" y="317.9375" fill="#000080" font-family="Arial" font-size="7pt" font-weight="" font-style="" dominant-baseline="" text-anchor="start"  >U3</text></g><rect id="gge414" x="380" y="330"   width="40" height="40" stroke="#880000" stroke-width="1" fill="none"   /><g c_partid="part_pin" c_etype="pinpart"  c_show="show"  c_elec="0" c_spicepin="1" c_origin="440,360" id="gge415" c_rotation="0"><circle c_pindot="true" class="pindot" cx="440" cy="360" r="2" fill="#4F4F4F" stroke="none" /><path d="M 440 360 h -20" fill="none" stroke="#880000" stroke-width="1"/><text x="418" y="363" font-family="Verdana" font-size="7pt" fill="#0000FF" text-anchor="end"   >GND</text><text x="425" y="359" font-family="Verdana" font-size="7pt" fill="#0000FF" text-anchor="start"   >1</text><circle cx="423" cy="360" r="3" stroke="#880000" fill="none" stroke-width="1" display="none" /><path d="M 420 357 L 417 360 L 420 363" fill="none" stroke="#880000" stroke-width="1"  display="none" /></g><g c_partid="part_pin" c_etype="pinpart"  c_show="show"  c_elec="0" c_spicepin="2" c_origin="440,350" id="gge422" c_rotation="0"><circle c_pindot="true" class="pindot" cx="440" cy="350" r="2" fill="#4F4F4F" stroke="none" /><path d="M 440 350 h -20" fill="none" stroke="#880000" stroke-width="1"/><text x="418" y="353" font-family="Verdana" font-size="7pt" fill="#0000FF" text-anchor="end"   >DQ</text><text x="425" y="349" font-family="Verdana" font-size="7pt" fill="#0000FF" text-anchor="start"   >2</text><circle cx="423" cy="350" r="3" stroke="#880000" fill="none" stroke-width="1" display="none" /><path d="M 420 347 L 417 350 L 420 353" fill="none" stroke="#880000" stroke-width="1"  display="none" /></g><g c_partid="part_pin" c_etype="pinpart"  c_show="show"  c_elec="0" c_spicepin="3" c_origin="440,340" id="gge429" c_rotation="0"><circle c_pindot="true" class="pindot" cx="440" cy="340" r="2" fill="#4F4F4F" stroke="none" /><path d="M 440 340 h -20" fill="none" stroke="#880000" stroke-width="1"/><text x="418" y="343" font-family="Verdana" font-size="7pt" fill="#0000FF" text-anchor="end"   >VDD</text><text x="425" y="339" font-family="Verdana" font-size="7pt" fill="#0000FF" text-anchor="start"   >3</text><circle cx="423" cy="340" r="3" stroke="#880000" fill="none" stroke-width="1" display="none" /><path d="M 420 337 L 417 340 L 420 343" fill="none" stroke="#880000" stroke-width="1"  display="none" /></g></g><polyline c_etype="wire" c_shapetype="line" points="320 330 320 285 315 285 280 285 280 320" stroke="#008800" id="gge436" stroke-width="1"   fill="none" stroke-linecap="round" /><polyline c_etype="wire" c_shapetype="line" points="625 410 625 440 480 440 365 440 365 325" stroke="#008800" id="gge439" stroke-width="1"   fill="none" stroke-linecap="round" /><polyline c_etype="wire" c_shapetype="line" points="320 370 320 440 365 440" stroke="#008800" id="gge440" stroke-width="1"   fill="none" stroke-linecap="round" /><polyline c_etype="wire" c_shapetype="line" points="480 370 480 330 495 330" stroke="#008800" id="gge444" stroke-width="1"   fill="none" stroke-linecap="round" /><polyline c_etype="wire" c_shapetype="line" points="625 340 615 340" stroke="#008800" id="gge445" stroke-width="1"   fill="none" stroke-linecap="round" /><polyline c_etype="wire" c_shapetype="line" points="615 350 635 350 635 330 615 330" stroke="#008800" id="gge446" stroke-width="1"   fill="none" stroke-linecap="round" /><polyline c_etype="wire" c_shapetype="line" points="415 285 635 285 635 330" stroke="#008800" id="gge447" stroke-width="1"   fill="none" stroke-linecap="round" /><polyline c_etype="wire" c_shapetype="line" points="495 360 495 440" stroke="#008800" id="gge449" stroke-width="1"   fill="none" stroke-linecap="round" /><polyline c_etype="wire" c_shapetype="line" points="440 360 440 440" stroke="#008800" id="gge451" stroke-width="1"   fill="none" stroke-linecap="round" /><polyline c_etype="wire" c_shapetype="line" points="440 350 495 350" stroke="#008800" id="gge453" stroke-width="1"   fill="none" stroke-linecap="round" /><polyline c_etype="wire" c_shapetype="line" points="460 345 460 350" stroke="#008800" id="gge454" stroke-width="1"   fill="none" stroke-linecap="round" /><polyline c_etype="wire" c_shapetype="line" points="440 340 440 285" stroke="#008800" id="gge456" stroke-width="1"   fill="none" stroke-linecap="round" /><polyline c_etype="wire" c_shapetype="line" points="460 305 460 285" stroke="#008800" id="gge458" stroke-width="1"   fill="none" stroke-linecap="round" /><polyline c_etype="wire" c_shapetype="line" points="280 330 280 440 320 440" stroke="#008800" id="gge460" stroke-width="1"   fill="none" stroke-linecap="round" /><g c_partid="part_junction" c_etype="pinpart" c_origin="320,440" id="gge461" c_shapetype="group"><circle c_pindot="true" class="pindot" cx="320" cy="440" r="2" fill="#4F4F4F" stroke="none"/><circle cx="320" cy="440" r="2.5" fill="#CC0000" stroke-width="1"/></g><g c_partid="part_junction" c_etype="pinpart" c_origin="440,285" id="gge457" c_shapetype="group"><circle c_pindot="true" class="pindot" cx="440" cy="285" r="2" fill="#4F4F4F" stroke="none"/><circle cx="440" cy="285" r="2.5" fill="#CC0000" stroke-width="1"/></g><g c_partid="part_junction" c_etype="pinpart" c_origin="495,440" id="gge450" c_shapetype="group"><circle c_pindot="true" class="pindot" cx="495" cy="440" r="2" fill="#4F4F4F" stroke="none"/><circle cx="495" cy="440" r="2.5" fill="#CC0000" stroke-width="1"/></g><g c_partid="part_junction" c_etype="pinpart" c_origin="480,440" id="gge443" c_shapetype="group"><circle c_pindot="true" class="pindot" cx="480" cy="440" r="2" fill="#4F4F4F" stroke="none"/><circle cx="480" cy="440" r="2.5" fill="#CC0000" stroke-width="1"/></g><g c_partid="part_junction" c_etype="pinpart" c_origin="315,285" id="gge438" c_shapetype="group"><circle c_pindot="true" class="pindot" cx="315" cy="285" r="2" fill="#4F4F4F" stroke="none"/><circle cx="315" cy="285" r="2.5" fill="#CC0000" stroke-width="1"/></g><g c_partid="part_junction" c_etype="pinpart" c_origin="365,440" id="gge441" c_shapetype="group"><circle c_pindot="true" class="pindot" cx="365" cy="440" r="2" fill="#4F4F4F" stroke="none"/><circle cx="365" cy="440" r="2.5" fill="#CC0000" stroke-width="1"/></g><g c_partid="part_junction" c_etype="pinpart" c_origin="635,330" id="gge448" c_shapetype="group"><circle c_pindot="true" class="pindot" cx="635" cy="330" r="2" fill="#4F4F4F" stroke="none"/><circle cx="635" cy="330" r="2.5" fill="#CC0000" stroke-width="1"/></g><g c_partid="part_junction" c_etype="pinpart" c_origin="440,440" id="gge452" c_shapetype="group"><circle c_pindot="true" class="pindot" cx="440" cy="440" r="2" fill="#4F4F4F" stroke="none"/><circle cx="440" cy="440" r="2.5" fill="#CC0000" stroke-width="1"/></g><g c_partid="part_junction" c_etype="pinpart" c_origin="460,350" id="gge455" c_shapetype="group"><circle c_pindot="true" class="pindot" cx="460" cy="350" r="2" fill="#4F4F4F" stroke="none"/><circle cx="460" cy="350" r="2.5" fill="#CC0000" stroke-width="1"/></g><g c_partid="part_junction" c_etype="pinpart" c_origin="460,285" id="gge459" c_shapetype="group"><circle c_pindot="true" class="pindot" cx="460" cy="285" r="2" fill="#4F4F4F" stroke="none"/><circle cx="460" cy="285" r="2.5" fill="#CC0000" stroke-width="1"/></g></g></svg>